<svg width="1555" height="1080" viewBox="0 0 1555 1080" fill="none" xmlns="http://www.w3.org/2000/svg">
<path opacity="0.15" d="M1408.63 214.457H1416.34V222.943H1408.63V214.457Z" fill="#D8A28A"/>
<path opacity="0.15" d="M1430.23 214.457H1437.94V222.943H1430.23V214.457Z" fill="#D8A28A"/>
<path opacity="0.15" d="M1451.06 214.457H1458.77V222.943H1451.06V214.457Z" fill="#D8A28A"/>
<path opacity="0.15" d="M204.429 241.457C219.857 243.771 233.743 232.971 236.057 217.543V213.686H231.429V216.771C229.886 228.343 219.857 236.829 208.286 236.829H205.2C199.029 236.057 193.629 232.971 189.771 227.571C186.686 223.714 185.143 218.314 185.143 213.686H180.514C180.514 219.857 182.057 225.257 185.914 230.657C190.543 236.829 196.714 240.686 204.429 241.457V241.457Z" fill="#D8A28A"/>
<path opacity="0.15" d="M205.971 229.114C209.829 229.886 213.686 228.343 216.771 226.029C219.857 223.714 222.171 219.857 222.943 216V213.686H218.314V215.229C217.543 218.314 216.771 220.629 214.457 222.171C212.914 223.714 210.6 224.486 208.286 224.486H206.743C203.657 223.714 201.343 222.943 199.8 220.629C198.257 219.086 197.486 216.771 197.486 214.457H192.857C192.857 217.543 193.629 220.629 195.943 223.714C198.257 226.8 202.114 228.343 205.971 229.114V229.114Z" fill="#D8A28A"/>
<path opacity="0.15" d="M175.114 238.371C181.286 246.857 191.314 253.029 202.114 254.571C212.914 256.114 223.714 253.029 232.2 246.857C240.686 240.686 246.857 230.657 248.4 219.857C248.4 218.314 249.171 216 249.171 214.457H244.543V219.857C243 229.114 238.371 237.6 230.657 243.771C223.714 247.629 216 250.714 208.286 250.714H202.886C193.629 249.171 185.143 244.543 178.971 236.829C174.343 230.657 172.029 222.943 172.029 215.229H167.4C167.4 222.943 169.714 231.429 175.114 238.371V238.371Z" fill="#D8A28A"/>
<path opacity="0.15" d="M165.086 246.086C173.571 257.657 185.914 264.6 200.571 266.914C229.886 270.771 256.886 250.714 260.743 221.4C260.743 219.086 261.514 216.771 261.514 213.686H256.886C256.886 216 256.886 218.314 256.114 220.629C253.029 245.314 231.429 263.057 207.514 263.057C205.2 263.057 202.886 263.057 200.571 262.286C187.457 260.743 175.886 253.8 168.171 243C162 234.514 158.143 223.714 158.143 213.686H154.286C154.286 226.029 158.143 236.829 165.086 246.086Z" fill="#D8A28A"/>
<path opacity="0.15" d="M332.486 654.171C337.114 654.171 341.743 650.314 341.743 644.914C341.743 640.286 337.886 635.657 332.486 635.657C327.857 635.657 323.229 639.514 323.229 644.914C323.229 650.314 327.086 654.171 332.486 654.171Z" fill="#D8A28A"/>
<path opacity="0.15" d="M0 745.2V757.543L16.2 773.743L0 789.171V801.514L27.7714 773.743L0 745.2Z" fill="#D8A28A"/>
<path opacity="0.15" d="M70.2 870.171L63.2571 877.114L71.7429 886.371L63.2571 894.857L70.2 901.8L78.6857 893.314L87.1714 901.8L94.8857 894.857L86.4 886.371L94.8857 877.114L87.1714 870.171L78.6857 878.657L70.2 870.171Z" fill="#D8A28A"/>
<path opacity="0.15" d="M160.457 696.6C145.8 696.6 134.229 708.171 134.229 722.829H187.457C186.686 708.171 175.114 696.6 160.457 696.6V696.6Z" fill="#D8A28A"/>
<path opacity="0.15" d="M8.48572 517.629C8.48572 539.229 26.2286 556.971 47.8286 556.971V539.229C36.2571 539.229 27 529.971 27 518.4C27 506.829 36.2571 497.571 47.8286 497.571V478.286C26.2286 478.286 8.48572 496.029 8.48572 517.629V517.629Z" fill="#D8A28A"/>
<path opacity="0.15" d="M1.54286 324.771C3.08571 323.229 4.62857 321.686 6.17143 321.686C7.71429 321.686 9.25714 322.457 10.8 324.771C13.1143 327.086 15.4286 330.171 21.6 330.171C27.7714 330.171 30.0857 327.086 32.4 324.771C33.9429 323.229 35.4857 321.686 37.0286 321.686C39.3429 321.686 40.1143 322.457 41.6571 324.771C43.9714 327.086 46.2857 330.171 52.4571 330.171C58.6286 330.171 60.9429 327.086 63.2571 324.771C64.8 323.229 66.3429 321.686 67.8857 321.686C70.2 321.686 70.9714 322.457 72.5143 324.771C74.8286 327.086 77.1429 330.171 83.3143 330.171V322.457C81 322.457 80.2286 321.686 78.6857 319.371C76.3714 317.057 74.0571 313.971 67.8857 313.971C62.4857 313.971 59.4 317.057 57.0857 319.371C55.5429 320.914 54 322.457 52.4571 322.457C50.1429 322.457 49.3714 321.686 47.8286 319.371C45.5143 317.057 43.2 313.971 37.0286 313.971C30.8571 313.971 28.5429 317.057 26.2286 319.371C24.6857 320.914 23.1429 322.457 21.6 322.457C19.2857 322.457 18.5143 321.686 16.9714 319.371C14.6571 317.057 12.3429 313.971 6.17143 313.971C3.85714 313.971 1.54286 314.743 0 315.514V325.543C0.771429 325.543 0.771429 325.543 1.54286 324.771V324.771Z" fill="#D8A28A"/>
<path opacity="0.15" d="M1.54286 351.771C3.08571 350.229 4.62857 348.686 6.17143 348.686C7.71429 348.686 9.25714 349.457 10.8 351.771C13.1143 354.086 15.4286 357.171 21.6 357.171C27.7714 357.171 30.0857 354.086 32.4 351.771C33.9429 350.229 35.4857 348.686 37.0286 348.686C39.3429 348.686 40.1143 349.457 41.6571 351.771C43.9714 354.086 46.2857 357.171 52.4571 357.171C58.6286 357.171 60.9429 354.086 63.2571 351.771C64.8 350.229 66.3429 348.686 67.8857 348.686C70.2 348.686 70.9714 349.457 72.5143 351.771C74.8286 354.086 77.1429 357.171 83.3143 357.171V349.457C81 349.457 80.2286 348.686 78.6857 346.371C76.3714 344.057 74.0571 340.971 67.8857 340.971C62.4857 340.971 59.4 344.057 57.0857 346.371C55.5429 347.914 54 349.457 52.4571 349.457C50.1429 349.457 49.3714 348.686 47.8286 346.371C45.5143 344.057 43.2 340.971 37.0286 340.971C30.8571 340.971 28.5429 344.057 26.2286 346.371C24.6857 347.914 23.1429 349.457 21.6 349.457C19.2857 349.457 18.5143 348.686 16.9714 346.371C14.6571 344.057 12.3429 340.971 6.17143 340.971C3.85714 340.971 1.54286 341.743 0 342.514V352.543C0.771429 352.543 0.771429 351.771 1.54286 351.771V351.771Z" fill="#D8A28A"/>
<path opacity="0.15" d="M156.6 550.029H165.086V651.857H156.6V550.029Z" fill="#D8A28A"/>
<path opacity="0.2" d="M820.029 77.9143C821.733 77.9143 823.114 76.5328 823.114 74.8286C823.114 73.1244 821.733 71.7429 820.029 71.7429C818.324 71.7429 816.943 73.1244 816.943 74.8286C816.943 76.5328 818.324 77.9143 820.029 77.9143Z" fill="#1A1A1A"/>
<path opacity="0.15" d="M796.114 77.9143C797.657 77.9143 799.2 76.3714 799.2 74.8286C799.2 73.2857 797.657 71.7429 796.114 71.7429C794.571 71.7429 793.029 73.2857 793.029 74.8286C793.029 76.3714 794.571 77.9143 796.114 77.9143Z" fill="#D8A28A"/>
<path opacity="0.2" d="M772.2 77.9143C773.904 77.9143 775.286 76.5328 775.286 74.8286C775.286 73.1244 773.904 71.7429 772.2 71.7429C770.496 71.7429 769.114 73.1244 769.114 74.8286C769.114 76.5328 770.496 77.9143 772.2 77.9143Z" fill="#1A1A1A"/>
<path opacity="0.2" d="M748.286 77.9143C749.99 77.9143 751.371 76.5328 751.371 74.8286C751.371 73.1244 749.99 71.7429 748.286 71.7429C746.582 71.7429 745.2 73.1244 745.2 74.8286C745.2 76.5328 746.582 77.9143 748.286 77.9143Z" fill="#1A1A1A"/>
<path opacity="0.15" d="M724.371 77.9143C725.914 77.9143 727.457 76.3714 727.457 74.8286C727.457 73.2857 725.914 71.7429 724.371 71.7429C722.829 71.7429 721.286 73.2857 721.286 74.8286C721.286 76.3714 722.829 77.9143 724.371 77.9143Z" fill="#D8A28A"/>
<path opacity="0.2" d="M820.029 54C821.733 54 823.114 52.6185 823.114 50.9143C823.114 49.2101 821.733 47.8286 820.029 47.8286C818.324 47.8286 816.943 49.2101 816.943 50.9143C816.943 52.6185 818.324 54 820.029 54Z" fill="#1A1A1A"/>
<path opacity="0.15" d="M796.114 54C797.657 54 799.2 52.4572 799.2 50.9143C799.2 49.3714 797.657 47.8286 796.114 47.8286C794.571 47.8286 793.029 49.3714 793.029 50.9143C793.029 52.4572 794.571 54 796.114 54Z" fill="#D8A28A"/>
<path opacity="0.2" d="M772.2 54C773.904 54 775.286 52.6185 775.286 50.9143C775.286 49.2101 773.904 47.8286 772.2 47.8286C770.496 47.8286 769.114 49.2101 769.114 50.9143C769.114 52.6185 770.496 54 772.2 54Z" fill="#1A1A1A"/>
<path opacity="0.2" d="M748.286 54C749.99 54 751.371 52.6185 751.371 50.9143C751.371 49.2101 749.99 47.8286 748.286 47.8286C746.582 47.8286 745.2 49.2101 745.2 50.9143C745.2 52.6185 746.582 54 748.286 54Z" fill="#1A1A1A"/>
<path opacity="0.15" d="M724.371 54C725.914 54 727.457 52.4572 727.457 50.9143C727.457 49.3714 725.914 47.8286 724.371 47.8286C722.829 47.8286 721.286 49.3714 721.286 50.9143C721.286 52.4572 722.829 54 724.371 54Z" fill="#D8A28A"/>
<path opacity="0.15" d="M820.029 30.0857C821.571 30.0857 823.114 28.5428 823.114 27C823.114 25.4571 821.571 23.9143 820.029 23.9143C818.486 23.9143 816.943 25.4571 816.943 27C816.943 28.5428 818.486 30.0857 820.029 30.0857Z" fill="#D8A28A"/>
<path opacity="0.15" d="M796.114 30.0857C797.657 30.0857 799.2 28.5428 799.2 27C799.2 25.4571 797.657 23.9143 796.114 23.9143C794.571 23.9143 793.029 25.4571 793.029 27C793.029 28.5428 794.571 30.0857 796.114 30.0857Z" fill="#D8A28A"/>
<path opacity="0.15" d="M772.2 30.0857C773.743 30.0857 775.286 28.5428 775.286 27C775.286 25.4571 773.743 23.9143 772.2 23.9143C770.657 23.9143 769.114 25.4571 769.114 27C769.114 28.5428 770.657 30.0857 772.2 30.0857Z" fill="#D8A28A"/>
<path opacity="0.15" d="M748.286 30.0857C749.829 30.0857 751.371 28.5428 751.371 27C751.371 25.4571 749.829 23.9143 748.286 23.9143C746.743 23.9143 745.2 25.4571 745.2 27C745.2 28.5428 746.743 30.0857 748.286 30.0857Z" fill="#D8A28A"/>
<path opacity="0.15" d="M724.371 30.0857C725.914 30.0857 727.457 28.5428 727.457 27C727.457 25.4571 725.914 23.9143 724.371 23.9143C722.829 23.9143 721.286 25.4571 721.286 27C721.286 28.5428 722.829 30.0857 724.371 30.0857Z" fill="#D8A28A"/>
<path opacity="0.2" d="M820.029 6.17143C821.733 6.17143 823.114 4.78991 823.114 3.08571C823.114 1.38152 821.733 0 820.029 0C818.324 0 816.943 1.38152 816.943 3.08571C816.943 4.78991 818.324 6.17143 820.029 6.17143Z" fill="#1A1A1A"/>
<path opacity="0.15" d="M796.114 6.17143C797.657 6.17143 799.2 4.62857 799.2 3.08571C799.2 1.54286 797.657 0 796.114 0C794.571 0 793.029 1.54286 793.029 3.08571C793.029 4.62857 794.571 6.17143 796.114 6.17143Z" fill="#D8A28A"/>
<path opacity="0.2" d="M772.2 6.17143C773.904 6.17143 775.286 4.78991 775.286 3.08571C775.286 1.38152 773.904 0 772.2 0C770.496 0 769.114 1.38152 769.114 3.08571C769.114 4.78991 770.496 6.17143 772.2 6.17143Z" fill="#1A1A1A"/>
<path opacity="0.2" d="M748.286 6.17143C749.99 6.17143 751.371 4.78991 751.371 3.08571C751.371 1.38152 749.99 0 748.286 0C746.582 0 745.2 1.38152 745.2 3.08571C745.2 4.78991 746.582 6.17143 748.286 6.17143Z" fill="#1A1A1A"/>
<path opacity="0.15" d="M724.371 6.17143C725.914 6.17143 727.457 4.62857 727.457 3.08571C727.457 1.54286 725.914 0 724.371 0C722.829 0 721.286 1.54286 721.286 3.08571C721.286 4.62857 722.829 6.17143 724.371 6.17143Z" fill="#D8A28A"/>
<path opacity="0.15" d="M388.8 396.514C401.914 396.514 412.714 385.714 412.714 372.6C412.714 359.486 401.914 348.686 388.8 348.686C375.686 348.686 364.886 359.486 364.886 372.6C364.886 385.714 375.686 396.514 388.8 396.514Z" fill="#D8A28A"/>
<path opacity="0.15" d="M1109.31 367.2C1113.94 367.2 1118.57 363.343 1118.57 357.943C1118.57 353.314 1114.71 348.686 1109.31 348.686C1104.69 348.686 1100.06 352.543 1100.06 357.943C1100.06 363.343 1103.91 367.2 1109.31 367.2Z" fill="#D8A28A"/>
<path opacity="0.15" d="M1109.31 316.286C1113.94 316.286 1118.57 312.429 1118.57 307.029C1118.57 302.4 1114.71 297.771 1109.31 297.771C1104.69 297.771 1100.06 301.629 1100.06 307.029C1100.06 312.429 1103.91 316.286 1109.31 316.286Z" fill="#D8A28A"/>
<path opacity="0.15" d="M1109.31 265.371C1113.94 265.371 1118.57 261.514 1118.57 256.114C1118.57 251.486 1114.71 246.857 1109.31 246.857C1104.69 246.857 1100.06 250.714 1100.06 256.114C1100.06 261.514 1103.91 265.371 1109.31 265.371Z" fill="#D8A28A"/>
<path opacity="0.15" d="M552.343 414.257H514.543L533.057 445.886L552.343 414.257Z" fill="#D8A28A"/>
<path opacity="0.15" d="M937.286 307.8C922.629 307.8 911.057 319.371 911.057 334.029H964.286C964.286 319.371 951.943 307.8 937.286 307.8Z" fill="#D8A28A"/>
<path opacity="0.15" d="M722.057 901.8L737.486 913.371L752.143 901.8L767.571 913.371L783 901.8L797.657 913.371L813.086 901.8L825.429 911.829L830.829 904.886L813.086 891L797.657 902.571L783 891L767.571 902.571L752.143 891L737.486 902.571L722.057 891L704.314 904.886L709.714 911.829L722.057 901.8Z" fill="#D8A28A"/>
<path opacity="0.15" d="M763.714 232.2H772.2V281.571H763.714V232.2Z" fill="#D8A28A"/>
<path opacity="0.15" d="M375.686 966.6H402.686V993.6H375.686V966.6Z" fill="#D8A28A"/>
<path opacity="0.2" d="M1484.23 692.743C1485.93 692.743 1487.31 691.361 1487.31 689.657C1487.31 687.953 1485.93 686.571 1484.23 686.571C1482.52 686.571 1481.14 687.953 1481.14 689.657C1481.14 691.361 1482.52 692.743 1484.23 692.743Z" fill="#1A1A1A"/>
<path opacity="0.15" d="M1460.31 686.571C1458.77 686.571 1457.23 688.114 1457.23 689.657C1457.23 691.2 1458.77 692.743 1460.31 692.743C1461.86 692.743 1463.4 691.2 1463.4 689.657C1463.4 688.114 1461.86 686.571 1460.31 686.571Z" fill="#D8A28A"/>
<path opacity="0.2" d="M1436.4 692.743C1438.1 692.743 1439.49 691.361 1439.49 689.657C1439.49 687.953 1438.1 686.571 1436.4 686.571C1434.7 686.571 1433.31 687.953 1433.31 689.657C1433.31 691.361 1434.7 692.743 1436.4 692.743Z" fill="#1A1A1A"/>
<path opacity="0.2" d="M1412.49 692.743C1414.19 692.743 1415.57 691.361 1415.57 689.657C1415.57 687.953 1414.19 686.571 1412.49 686.571C1410.78 686.571 1409.4 687.953 1409.4 689.657C1409.4 691.361 1410.78 692.743 1412.49 692.743Z" fill="#1A1A1A"/>
<path opacity="0.15" d="M1388.57 692.743C1390.11 692.743 1391.66 691.2 1391.66 689.657C1391.66 688.114 1390.11 686.571 1388.57 686.571C1387.03 686.571 1385.49 688.114 1385.49 689.657C1385.49 691.2 1386.26 692.743 1388.57 692.743Z" fill="#D8A28A"/>
<path opacity="0.2" d="M1484.23 668.829C1485.93 668.829 1487.31 667.447 1487.31 665.743C1487.31 664.039 1485.93 662.657 1484.23 662.657C1482.52 662.657 1481.14 664.039 1481.14 665.743C1481.14 667.447 1482.52 668.829 1484.23 668.829Z" fill="#1A1A1A"/>
<path opacity="0.15" d="M1460.31 662.657C1458.77 662.657 1457.23 664.2 1457.23 665.743C1457.23 667.286 1458.77 668.829 1460.31 668.829C1461.86 668.829 1463.4 667.286 1463.4 665.743C1463.4 664.2 1461.86 662.657 1460.31 662.657Z" fill="#D8A28A"/>
<path opacity="0.2" d="M1436.4 668.829C1438.1 668.829 1439.49 667.447 1439.49 665.743C1439.49 664.039 1438.1 662.657 1436.4 662.657C1434.7 662.657 1433.31 664.039 1433.31 665.743C1433.31 667.447 1434.7 668.829 1436.4 668.829Z" fill="#1A1A1A"/>
<path opacity="0.2" d="M1412.49 668.829C1414.19 668.829 1415.57 667.447 1415.57 665.743C1415.57 664.039 1414.19 662.657 1412.49 662.657C1410.78 662.657 1409.4 664.039 1409.4 665.743C1409.4 667.447 1410.78 668.829 1412.49 668.829Z" fill="#1A1A1A"/>
<path opacity="0.15" d="M1388.57 668.829C1390.11 668.829 1391.66 667.286 1391.66 665.743C1391.66 664.2 1390.11 662.657 1388.57 662.657C1387.03 662.657 1385.49 664.2 1385.49 665.743C1385.49 667.286 1386.26 668.829 1388.57 668.829Z" fill="#D8A28A"/>
<path opacity="0.15" d="M1484.23 644.914C1485.77 644.914 1487.31 643.371 1487.31 641.829C1487.31 640.286 1485.77 638.743 1484.23 638.743C1482.69 638.743 1481.14 640.286 1481.14 641.829C1481.14 643.371 1482.69 644.914 1484.23 644.914Z" fill="#D8A28A"/>
<path opacity="0.15" d="M1460.31 638.743C1458.77 638.743 1457.23 640.286 1457.23 641.829C1457.23 643.371 1458.77 644.914 1460.31 644.914C1461.86 644.914 1463.4 643.371 1463.4 641.829C1463.4 640.286 1461.86 638.743 1460.31 638.743Z" fill="#D8A28A"/>
<path opacity="0.15" d="M1436.4 638.743C1434.86 638.743 1433.31 640.286 1433.31 641.829C1433.31 643.371 1434.86 644.914 1436.4 644.914C1437.94 644.914 1439.49 643.371 1439.49 641.829C1439.49 640.286 1437.94 638.743 1436.4 638.743Z" fill="#D8A28A"/>
<path opacity="0.15" d="M1412.49 644.914C1414.03 644.914 1415.57 643.371 1415.57 641.829C1415.57 640.286 1414.03 638.743 1412.49 638.743C1410.94 638.743 1409.4 640.286 1409.4 641.829C1409.4 643.371 1410.17 644.914 1412.49 644.914Z" fill="#D8A28A"/>
<path opacity="0.15" d="M1388.57 644.914C1390.11 644.914 1391.66 643.371 1391.66 641.829C1391.66 640.286 1390.11 638.743 1388.57 638.743C1387.03 638.743 1385.49 640.286 1385.49 641.829C1385.49 643.371 1386.26 644.914 1388.57 644.914Z" fill="#D8A28A"/>
<path opacity="0.2" d="M1484.23 621C1485.93 621 1487.31 619.618 1487.31 617.914C1487.31 616.21 1485.93 614.829 1484.23 614.829C1482.52 614.829 1481.14 616.21 1481.14 617.914C1481.14 619.618 1482.52 621 1484.23 621Z" fill="#1A1A1A"/>
<path opacity="0.15" d="M1460.31 614.829C1458.77 614.829 1457.23 616.371 1457.23 617.914C1457.23 619.457 1458.77 621 1460.31 621C1461.86 621 1463.4 619.457 1463.4 617.914C1463.4 616.371 1461.86 614.829 1460.31 614.829Z" fill="#D8A28A"/>
<path opacity="0.2" d="M1436.4 621C1438.1 621 1439.49 619.618 1439.49 617.914C1439.49 616.21 1438.1 614.829 1436.4 614.829C1434.7 614.829 1433.31 616.21 1433.31 617.914C1433.31 619.618 1434.7 621 1436.4 621Z" fill="#1A1A1A"/>
<path opacity="0.2" d="M1412.49 621C1414.19 621 1415.57 619.618 1415.57 617.914C1415.57 616.21 1414.19 614.829 1412.49 614.829C1410.78 614.829 1409.4 616.21 1409.4 617.914C1409.4 619.618 1410.78 621 1412.49 621Z" fill="#1A1A1A"/>
<path opacity="0.15" d="M1388.57 621C1390.11 621 1391.66 619.457 1391.66 617.914C1391.66 616.371 1390.11 614.829 1388.57 614.829C1387.03 614.829 1385.49 616.371 1385.49 617.914C1385.49 619.457 1386.26 621 1388.57 621Z" fill="#D8A28A"/>
<path opacity="0.2" d="M1484.23 597.086C1485.93 597.086 1487.31 595.704 1487.31 594C1487.31 592.296 1485.93 590.914 1484.23 590.914C1482.52 590.914 1481.14 592.296 1481.14 594C1481.14 595.704 1482.52 597.086 1484.23 597.086Z" fill="#1A1A1A"/>
<path opacity="0.15" d="M1457.23 594C1457.23 595.543 1458.77 597.086 1460.31 597.086C1461.86 597.086 1463.4 595.543 1463.4 594C1463.4 592.457 1461.86 590.914 1460.31 590.914C1458 590.914 1457.23 592.457 1457.23 594Z" fill="#D8A28A"/>
<path opacity="0.2" d="M1436.4 597.086C1438.1 597.086 1439.49 595.704 1439.49 594C1439.49 592.296 1438.1 590.914 1436.4 590.914C1434.7 590.914 1433.31 592.296 1433.31 594C1433.31 595.704 1434.7 597.086 1436.4 597.086Z" fill="#1A1A1A"/>
<path opacity="0.2" d="M1412.49 597.086C1414.19 597.086 1415.57 595.704 1415.57 594C1415.57 592.296 1414.19 590.914 1412.49 590.914C1410.78 590.914 1409.4 592.296 1409.4 594C1409.4 595.704 1410.78 597.086 1412.49 597.086Z" fill="#1A1A1A"/>
<path opacity="0.15" d="M1388.57 597.086C1390.11 597.086 1391.66 595.543 1391.66 594C1391.66 592.457 1390.11 590.914 1388.57 590.914C1387.03 590.914 1385.49 592.457 1385.49 594C1385.49 595.543 1386.26 597.086 1388.57 597.086Z" fill="#D8A28A"/>
<path opacity="0.15" d="M1296.77 598.629H1198.03L1194.94 603.257H1299.09L1296.77 598.629Z" fill="#D8A28A"/>
<path opacity="0.15" d="M1288.29 584.743H1206.51L1203.43 589.371H1291.37L1288.29 584.743Z" fill="#D8A28A"/>
<path opacity="0.15" d="M1279.8 571.629H1214.23L1211.91 576.257H1282.89L1279.8 571.629Z" fill="#D8A28A"/>
<path opacity="0.15" d="M1272.09 557.743H1222.71L1219.63 562.371H1274.4L1272.09 557.743Z" fill="#D8A28A"/>
<path opacity="0.15" d="M1263.6 544.629H1231.2L1228.11 549.257H1266.69L1263.6 544.629Z" fill="#D8A28A"/>
<path opacity="0.15" d="M1255.11 530.743H1238.91L1236.6 535.371H1258.2L1255.11 530.743Z" fill="#D8A28A"/>
<path opacity="0.15" d="M1247.4 517.629L1244.31 522.257H1250.49L1247.4 517.629Z" fill="#D8A28A"/>
<path opacity="0.15" d="M1218.86 1056.09C1218.86 1069.2 1229.66 1080 1242.77 1080C1255.89 1080 1266.69 1069.2 1266.69 1056.09C1266.69 1042.97 1255.89 1032.17 1242.77 1032.17C1229.66 1032.17 1218.86 1042.97 1218.86 1056.09Z" fill="#D8A28A"/>
<path opacity="0.15" d="M1321.46 354.857C1333.8 354.857 1343.06 344.829 1343.06 333.257C1343.06 320.914 1333.03 311.657 1321.46 311.657C1309.11 311.657 1299.86 321.686 1299.86 333.257C1299.86 344.829 1309.11 354.857 1321.46 354.857ZM1321.46 324C1326.09 324 1329.94 327.857 1329.94 332.486C1329.94 337.114 1326.09 340.971 1321.46 340.971C1316.83 340.971 1312.97 337.114 1312.97 332.486C1312.97 327.857 1316.83 324 1321.46 324Z" fill="#D8A28A"/>
<path opacity="0.15" d="M1522.8 773.743L1552.11 803.057L1554.43 801.514V789.171L1552.11 791.486L1534.37 773.743L1552.11 755.229L1554.43 757.543V745.2L1552.11 743.657L1522.8 773.743Z" fill="#D8A28A"/>
<path opacity="0.15" d="M1459.54 448.2H1407.09L1433.31 491.4L1459.54 448.2ZM1444.89 456.686L1433.31 475.971L1421.74 456.686H1444.89Z" fill="#D8A28A"/>
<path opacity="0.15" d="M1329.17 803.057H1291.37L1310.66 833.914L1329.17 803.057Z" fill="#D8A28A"/>
<path opacity="0.15" d="M1549.8 319.371C1548.26 320.914 1546.71 322.457 1545.17 322.457C1542.86 322.457 1542.09 321.686 1540.54 319.371C1538.23 317.057 1535.91 313.971 1529.74 313.971C1524.34 313.971 1521.26 317.057 1518.94 319.371C1517.4 320.914 1515.86 322.457 1514.31 322.457V330.171C1519.71 330.171 1522.8 327.086 1525.11 324.771C1526.66 323.229 1528.2 321.686 1529.74 321.686C1531.29 321.686 1532.83 322.457 1534.37 324.771C1536.69 327.086 1539 330.171 1545.17 330.171C1549.8 330.171 1552.11 327.857 1554.43 326.314V316.286C1552.11 317.057 1550.57 317.829 1549.8 319.371Z" fill="#D8A28A"/>
<path opacity="0.15" d="M1549.8 345.6C1548.26 347.143 1546.71 348.686 1545.17 348.686C1542.86 348.686 1542.09 347.914 1540.54 345.6C1538.23 343.286 1535.91 340.2 1529.74 340.2C1524.34 340.2 1521.26 343.286 1518.94 345.6C1517.4 347.143 1515.86 348.686 1514.31 348.686V356.4C1519.71 356.4 1522.8 353.314 1525.11 351C1526.66 349.457 1528.2 347.914 1529.74 347.914C1531.29 347.914 1532.83 348.686 1534.37 351C1536.69 353.314 1539 356.4 1545.17 356.4C1549.8 356.4 1552.11 354.857 1554.43 352.543V342.514C1552.11 343.286 1550.57 344.829 1549.8 345.6Z" fill="#D8A28A"/>
<path opacity="0.15" d="M790.714 559.286C806.143 561.6 820.029 550.8 822.343 535.371C823.114 527.657 821.571 520.714 816.943 514.543C812.314 508.371 806.143 504.514 798.429 503.743H794.571C780.686 503.743 769.114 513.771 766.8 527.657C766.029 535.371 767.571 542.314 772.2 548.486C776.829 553.886 783 557.743 790.714 559.286ZM771.429 527.657C772.971 514.543 785.314 506.057 797.657 507.6C803.829 508.371 809.229 511.457 813.086 516.857C816.943 521.486 818.486 527.657 817.714 533.829C816.171 545.4 806.143 553.886 794.571 553.886H791.486C785.314 553.114 779.914 550.029 776.057 544.629C772.2 540 770.657 533.829 771.429 527.657Z" fill="#D8A28A"/>
<path opacity="0.15" d="M982.8 617.914C986.657 618.686 990.514 617.143 993.6 614.829C996.686 612.514 999 608.657 999.771 604.8C1000.54 600.943 999 597.086 996.686 594C994.371 590.914 990.514 588.6 986.657 587.829H984.343C981.257 587.829 978.171 588.6 975.086 590.914C972 593.229 969.686 597.086 968.914 600.943C968.143 604.8 969.686 608.657 972 611.743C975.086 614.829 978.943 617.143 982.8 617.914V617.914ZM974.314 600.943C975.086 597.857 975.857 595.543 978.171 594C980.486 592.457 983.571 591.686 985.886 591.686C988.971 592.457 991.286 593.229 992.829 595.543C994.371 597.857 995.143 600.943 995.143 603.257C994.371 606.343 993.6 608.657 991.286 610.2C989.743 611.743 987.429 612.514 985.114 612.514H983.571C980.486 611.743 978.171 610.971 976.629 608.657C975.086 607.114 974.314 604.029 974.314 600.943V600.943Z" fill="#D8A28A"/>
<path opacity="0.15" d="M979.714 643.371C990.514 644.914 1001.31 641.829 1009.8 635.657C1018.29 629.486 1024.46 619.457 1026 608.657C1027.54 597.857 1024.46 587.057 1018.29 578.571C1012.11 570.086 1002.09 563.914 991.286 562.371C989.743 562.371 987.429 561.6 985.886 561.6C977.4 561.6 968.914 564.686 961.2 570.086C952.714 576.257 946.543 586.286 945 597.086C943.457 607.886 946.543 618.686 952.714 627.171C958.886 635.657 968.914 641.829 979.714 643.371ZM948.857 597.857C950.4 588.6 955.029 580.114 962.743 573.943C970.457 567.771 979.714 565.457 989.743 567C999 568.543 1007.49 573.171 1013.66 580.886C1019.83 588.6 1022.14 597.857 1020.6 607.886C1019.06 617.143 1014.43 625.629 1006.71 631.8C1000.54 636.429 992.829 638.743 985.114 638.743H979.714C970.457 637.2 961.971 632.571 955.8 624.857C950.4 617.143 948.086 607.114 948.857 597.857Z" fill="#D8A28A"/>
<path opacity="0.15" d="M931.886 595.543C929.571 609.429 933.429 624.086 941.914 634.886C950.4 646.457 962.743 653.4 977.4 655.714C1006.71 659.571 1033.71 639.514 1037.57 610.2C1039.89 596.314 1036.03 581.657 1027.54 570.857C1019.06 559.286 1006.71 552.343 992.057 550.029C989.743 550.029 986.657 549.257 984.343 549.257C958.886 549.257 935.743 568.543 931.886 595.543ZM985.114 553.886C987.429 553.886 989.743 553.886 992.057 554.657C1005.17 556.2 1016.74 563.143 1024.46 573.943C1032.17 584.743 1036.03 597.086 1033.71 610.2C1030.63 634.886 1009.03 652.629 985.114 652.629C982.8 652.629 980.486 652.629 978.171 651.857C965.057 650.314 953.486 643.371 945.771 632.571C938.057 621.771 934.2 609.429 936.514 596.314C939.6 571.629 961.2 553.886 985.114 553.886V553.886Z" fill="#D8A28A"/>
<path opacity="0.15" d="M523.029 721.286C523.029 733.629 533.057 742.886 544.629 742.886C556.971 742.886 566.229 732.857 566.229 721.286C566.229 708.943 556.2 699.686 544.629 699.686C532.286 699.686 523.029 709.714 523.029 721.286ZM553.114 721.286C553.114 725.914 549.257 729.771 544.629 729.771C540 729.771 536.143 725.914 536.143 721.286C536.143 716.657 540 712.8 544.629 712.8C549.257 712.8 553.114 716.657 553.114 721.286Z" fill="#D8A28A"/>
<path opacity="0.15" d="M1035.26 807.686L1021.37 820.8L1007.49 807.686L995.914 819.257L1009.8 833.143L995.914 847.029L1007.49 858.6L1021.37 844.714L1035.26 858.6L1046.83 847.029L1032.94 833.143L1046.83 819.257L1035.26 807.686Z" fill="#D8A28A"/>
</svg>
