<svg width="193" height="63" viewBox="0 0 193 63" fill="none" xmlns="http://www.w3.org/2000/svg">
<rect y="3" width="60" height="60" fill="#222222"/>
<rect x="1.5" y="4.5" width="57" height="57" fill="#36261B" stroke="#221711"/>
<path d="M33.8125 43.6875L34.0625 43.0625L34.875 42.1562C35.2917 41.4688 35.6354 41.0625 35.9062 40.9375C35.9479 40.7708 36.0104 40.6146 36.0938 40.4688C36.1771 40.3229 36.2396 40.0938 36.2812 39.7812L36.5625 39.2812C36.6458 39.1979 36.6875 39.1354 36.6875 39.0938C36.6875 39.0521 36.6042 38.9271 36.4375 38.7188L36.2812 38.0625C36.2812 37.8958 35.7292 37.3438 34.625 36.4062H34.375L32.125 35.3125L32 35L31.75 34.9375L31.4375 35.0625H31.375L30.3125 34.75C29.4583 34.5208 28.8958 34.3438 28.625 34.2188C28.5833 34.2604 28.5208 34.2812 28.4375 34.2812L27.1875 34C26.8333 33.9167 26.6146 33.8333 26.5312 33.75C26.4688 33.6458 26.2917 33.5521 26 33.4688C25.7292 33.3646 25.5521 33.2708 25.4688 33.1875C25.3854 33.1042 25.2188 33.0625 24.9688 33.0625L24.1875 33.25C24.1875 33.1875 23.8958 33.0833 23.3125 32.9375C23.2292 32.7292 23.1667 32.625 23.125 32.625L22.2188 32.75C21.6146 32.4583 21.3021 32.3125 21.2812 32.3125C21.1771 32.3125 20.8125 32.2604 20.1875 32.1562C19.5625 32.0312 19.1562 31.9062 18.9688 31.7812C18.7812 31.6562 18.5 31.5312 18.125 31.4062L17.9375 31.2188C17.8958 31.1771 17.7812 31.1354 17.5938 31.0938H17.0312C16.9062 31.0938 16.7292 30.9896 16.5 30.7812C16.2917 30.5729 16.0104 30.3646 15.6562 30.1562C15.3229 29.9479 15.0208 29.625 14.75 29.1875C14.5 28.7292 14.3646 28.2708 14.3438 27.8125C14.3021 27.7708 14.2812 27.7292 14.2812 27.6875L14.4688 26.6875C14.6562 25.4167 15.25 24.2396 16.25 23.1562C16.4167 22.5938 16.7604 22.1875 17.2812 21.9375L17.4062 21.5C18.0104 20.9792 18.4375 20.5625 18.6875 20.25C18.9583 19.9375 19.2604 19.6875 19.5938 19.5C19.9271 19.2917 20.1875 19.1042 20.375 18.9375L20.9375 18.6875C20.9167 18.5 21.375 18.0625 22.3125 17.375C23.2708 16.6667 24.0104 16.2083 24.5312 16C25.0729 15.7708 25.4271 15.6042 25.5938 15.5C25.7812 15.3958 26.3021 15.2396 27.1562 15.0312C27.3646 14.4688 27.6979 14.1875 28.1562 14.1875H28.625L29.25 13.5625L30.0938 13.625C30.1354 13.5833 30.25 13.4583 30.4375 13.25C30.625 13.0208 30.9375 12.9062 31.375 12.9062L35.1562 11.75H35.4062L35.6562 11.8125C35.8229 11.8125 36.0312 11.6667 36.2812 11.375C36.5521 11.0833 36.8958 10.9375 37.3125 10.9375C37.3958 10.9375 37.5521 11.0208 37.7812 11.1875C37.7812 11.2292 37.8021 11.25 37.8438 11.25L38.6562 11L39.625 11.0625L40.8438 10.75C41.6146 10.75 42.2917 10.9375 42.875 11.3125L42.9375 11.1875V11C42.9375 10.6458 43.1354 10.4688 43.5312 10.4688C43.6979 10.4688 43.8021 10.5104 43.8438 10.5938L44.2188 10.8125H44.4375C44.4792 10.8125 44.75 10.9375 45.25 11.1875C45.5625 10.9792 45.7604 10.875 45.8438 10.875C46.2396 10.875 46.5521 11.0417 46.7812 11.375L47.3125 11.3125C47.4792 11.1458 47.5833 11.0625 47.625 11.0625C47.75 11.0625 47.9167 11.2292 48.125 11.5625L48.3125 11.625H49.0938C49.1354 11.625 49.2188 11.6875 49.3438 11.8125L49.6875 12.0938C49.8542 12.2604 49.9688 12.3958 50.0312 12.5C50.0938 12.6042 50.1667 12.6979 50.25 12.7812C50.7917 12.5521 51.0833 12.4375 51.125 12.4375C51.3333 12.4375 51.4896 12.6146 51.5938 12.9688C51.5938 13.2604 51.7708 13.5521 52.125 13.8438C52.5 14.1146 52.6875 14.4062 52.6875 14.7188C53.1458 14.9271 53.375 15.2604 53.375 15.7188L53.9688 17.25L53.8438 17.7812C54.0104 18.1146 54.0938 18.3021 54.0938 18.3438L53.9688 19.5L54.0938 20.7188C54.0938 21.3646 53.7917 21.9167 53.1875 22.375C53.0625 22.375 52.8542 22.4688 52.5625 22.6562C52.2917 22.8229 52.1354 22.9062 52.0938 22.9062C51.5521 22.9062 51.1875 22.7812 51 22.5312C50.8333 22.2604 50.6667 22.0625 50.5 21.9375C50.3333 21.8125 50.25 21.6458 50.25 21.4375C50.25 20.9583 50.5729 20.4896 51.2188 20.0312C51.5104 20.0312 51.7188 19.9375 51.8438 19.75C51.8438 19.3125 51.75 19.0104 51.5625 18.8438C51.375 18.6771 51.1667 18.4479 50.9375 18.1562C50.7292 17.8646 50.5 17.6354 50.25 17.4688C50 17.2812 49.7917 17.0521 49.625 16.7812C49.4792 16.5104 49.3438 16.375 49.2188 16.375L48.7812 16.4375L47.875 16.25C46.9167 16.125 46.0417 15.9062 45.25 15.5938H44.625L42.9375 15.3438C42.6458 15.4688 42.2292 15.5312 41.6875 15.5312L39.625 15.8438L38.7812 15.7812C38.7188 15.7812 38.1458 15.9583 37.0625 16.3125L36.75 16.375H35.9062C35.8646 16.375 35.5938 16.4792 35.0938 16.6875C34.6146 16.8958 34.2083 17.0417 33.875 17.125L33.5938 17.25C33.5521 17.2917 33.4896 17.3125 33.4062 17.3125L32.9062 17.25L30.1562 18.5938L29.7188 18.3438C29.3646 18.1771 29.1667 18.0938 29.125 18.0938C28.8333 18.0938 28.6875 18.2396 28.6875 18.5312L28.625 19.125C28.3542 19.2917 28.1771 19.4167 28.0938 19.5C28.0104 19.5833 27.9062 19.6458 27.7812 19.6875H27.4062C27.1562 19.6875 26.9167 19.8021 26.6875 20.0312C26.4792 20.2396 26.2917 20.3542 26.125 20.375C25.9583 20.3958 25.7188 20.4896 25.4062 20.6562C25.3646 20.7396 25.1979 20.8229 24.9062 20.9062C24.6146 20.9896 24.3854 21.1875 24.2188 21.5C24.0729 21.7917 23.8958 21.9375 23.6875 21.9375L23.0625 21.8125L22.7188 22.4375C22.2812 22.5417 22.0312 22.6042 21.9688 22.625C21.6979 22.9792 21.4271 23.25 21.1562 23.4375C20.8854 23.625 20.6146 23.8333 20.3438 24.0625C20.0938 24.2708 19.9062 24.4896 19.7812 24.7188C19.6771 24.9479 19.5104 25.1354 19.2812 25.2812C19.0521 25.4062 18.8542 25.6771 18.6875 26.0938L18.375 26.4062C17.8542 26.8438 17.5938 27.3125 17.5938 27.8125C17.5938 28.1667 17.8438 28.4271 18.3438 28.5938C18.8438 28.7604 19.1562 28.8958 19.2812 29C19.4062 29.1042 19.5938 29.1562 19.8438 29.1562C20.0938 29.1562 20.3333 29.2083 20.5625 29.3125C20.7917 29.4167 21.1771 29.5833 21.7188 29.8125C21.8229 30.1458 21.9271 30.3125 22.0312 30.3125C22.0729 30.3125 22.1562 30.2292 22.2812 30.0625C22.4062 29.8958 22.5938 29.8125 22.8438 29.8125C23.1146 29.8125 23.375 29.9792 23.625 30.3125L23.875 30.125H24L24.4062 30.25H24.4688L24.8438 30.0625C24.8854 30.0208 24.9479 30 25.0312 30C25.0938 30 25.4167 30.1042 26 30.3125H26.0625C26.1042 30.3125 26.2708 30.2708 26.5625 30.1875C26.875 30.2708 27.0521 30.3333 27.0938 30.375L27.5312 30.625C27.5312 30.6875 27.5729 30.7188 27.6562 30.7188C27.7396 30.7188 27.8646 30.6771 28.0312 30.5938C28.1979 30.4896 28.3542 30.4375 28.5 30.4375C28.6667 30.4375 28.8542 30.5521 29.0625 30.7812C29.3958 30.6354 29.5833 30.5625 29.625 30.5625C29.8125 30.5625 30.1354 30.7188 30.5938 31.0312L31.1875 31.1562H31.875L32.9062 31.3438C33.1979 31.6562 33.5 31.8958 33.8125 32.0625C33.8542 31.8333 34 31.7188 34.25 31.7188C34.5833 31.7188 35.0938 31.8542 35.7812 32.125L36.0312 32.1875L36.2812 32.375C36.6354 32.2917 36.8542 32.25 36.9375 32.25C37.3542 32.25 37.5625 32.3958 37.5625 32.6875C37.5625 32.9375 37.5 33.2604 37.375 33.6562C37.4167 33.6562 37.4792 33.6979 37.5625 33.7812C37.6667 33.6562 37.7812 33.5729 37.9062 33.5312L38.4062 33.25C38.4896 33.1667 38.5521 33.125 38.5938 33.125C39.0729 33.125 39.75 33.4583 40.625 34.125C41.5 34.7917 42 35.5521 42.125 36.4062C42.125 36.6562 42.2083 36.9479 42.375 37.2812L42.25 37.6875L42.3125 38.1875C42.3125 38.2292 42.2708 38.375 42.1875 38.625L42.125 39.0938C42.0833 39.1771 42.0208 39.25 41.9375 39.3125C41.8542 39.375 41.7917 39.4479 41.75 39.5312L41.9375 40.0625V40.1875C41.9375 40.2708 41.8542 40.3854 41.6875 40.5312C41.5417 40.6771 41.4479 40.8125 41.4062 40.9375C41.3646 41.0625 41.2917 41.1979 41.1875 41.3438C41.0833 41.4688 41.0104 41.625 40.9688 41.8125C40.9271 42 40.7188 42.2188 40.3438 42.4688C39.9896 42.6979 39.8125 42.875 39.8125 43C39.8125 43.125 39.8542 43.1875 39.9375 43.1875C40.1875 43.1875 40.4479 43.0729 40.7188 42.8438C41.0104 42.5938 41.2292 42.4479 41.375 42.4062C41.5208 42.3646 41.7708 42.2396 42.125 42.0312L45.0625 40.6562C47.25 39.6146 48.4688 39.0938 48.7188 39.0938C49.0521 39.0938 49.2188 39.2604 49.2188 39.5938C49.2188 39.7188 49.0729 39.9583 48.7812 40.3125C48.7396 41.2917 48.3125 41.8646 47.5 42.0312C47.1875 42.2396 46.9479 42.4583 46.7812 42.6875H46.5312C46.0104 43.2708 45.4167 43.5625 44.75 43.5625H44.5625C43.7917 44.3333 42.8542 44.7604 41.75 44.8438C41.0208 45.5729 40.4167 45.9375 39.9375 45.9375L39.4375 46.0625C38.9167 46.2708 38.5521 46.375 38.3438 46.375C38.3021 46.375 38.2188 46.4583 38.0938 46.625L37.625 46.9688C37.2292 47.0521 36.8021 47.2812 36.3438 47.6562C35.8854 48.0312 35.5312 48.25 35.2812 48.3125C35.0521 48.3542 34.8021 48.4375 34.5312 48.5625C34.2604 48.6875 33.1667 49.3958 31.25 50.6875L30.8438 50.8125C30.0312 51.1875 29.5208 51.5 29.3125 51.75C29.1042 51.9792 28.8542 52.1771 28.5625 52.3438H28.4375C27.9583 52.3438 27.3958 52.6562 26.75 53.2812C26.7083 53.3854 26.25 53.5625 25.375 53.8125C24.5208 54.0417 23.6979 54.4062 22.9062 54.9062C22.4062 55.0312 21.7917 55.1979 21.0625 55.4062C20.3333 55.6146 19.8021 55.7396 19.4688 55.7812L17.2812 56.25C16.8021 56.3333 16.25 56.4583 15.625 56.625C15.25 56.5 14.9271 56.4375 14.6562 56.4375L14.0938 56.5C14.0104 56.5 13.875 56.4271 13.6875 56.2812C13.5208 56.1354 13.2917 55.9896 13 55.8438C12.7083 55.7188 12.5625 55.3646 12.5625 54.7812C12.5625 54.2604 13.1354 53.75 14.2812 53.25C15.4271 52.7292 16.1771 52.3646 16.5312 52.1562C16.6979 51.9271 16.9792 51.7917 17.375 51.75C17.7917 51.7083 18.1458 51.5833 18.4375 51.375C18.7292 51.1667 19.1771 50.9792 19.7812 50.8125L21.0312 50.1562C21.0938 50.1146 21.1458 50.0938 21.1875 50.0938H21.625C21.7708 50.0938 21.9896 49.9792 22.2812 49.75C22.5729 49.5208 22.875 49.3542 23.1875 49.25H23.5625C23.6042 49.25 23.6667 49.1979 23.75 49.0938C23.8333 48.9896 24.0208 48.8542 24.3125 48.6875L24.4062 48.625H24.7188C24.9479 48.4375 25.2188 48.2812 25.5312 48.1562C25.8438 48.0312 26.1458 47.8646 26.4375 47.6562L28.875 46.7188L29.4375 46.7812C29.5625 46.7812 29.7188 46.6875 29.9062 46.5C30.1146 46.2917 30.5833 46.0833 31.3125 45.875C31.4167 45.7083 31.6354 45.5104 31.9688 45.2812C32.3021 45.0521 32.6979 44.7188 33.1562 44.2812L33.8125 43.6875ZM22.9062 51.5L22.4688 51.4375C22.1771 51.6042 21.8854 51.6979 21.5938 51.7188C21.3229 51.7396 20.8854 51.9375 20.2812 52.3125C19.6979 52.6667 19.0208 53.0104 18.25 53.3438C17.4792 53.6771 17.0938 53.8958 17.0938 54C18.1146 53.875 19.1771 53.5938 20.2812 53.1562L22.5312 52.5312C22.8229 52.4479 23.0208 52.3646 23.125 52.2812C23.25 52.1979 23.4792 52.0833 23.8125 51.9375L24.3125 51.5625C24.4167 51.5208 24.6458 51.4375 25 51.3125C25.3542 51.1875 25.5312 51.0625 25.5312 50.9375C25.5312 50.8542 25.4896 50.8125 25.4062 50.8125C24.6562 50.8125 24.0625 50.9271 23.625 51.1562C23.1875 51.3854 22.9479 51.5 22.9062 51.5Z" fill="white"/>
<path d="M62.9062 43.125L63.1562 42.7812C63.6979 42.6562 64.0417 42.4479 64.1875 42.1562C64.25 42.0104 64.7708 41.4688 65.75 40.5312C66.7292 39.5938 67.2708 39.0938 67.375 39.0312C68.0417 37.8229 68.4479 36.9167 68.5938 36.3125C68.8438 36.1875 68.9688 36.0417 68.9688 35.875L69.2188 35.375L69.5 35.3125L69.625 35.1875V34.9062C69.625 34.5312 70.0312 33.6562 70.8438 32.2812C71.6562 30.5938 72.0938 29.6667 72.1562 29.5C72.2188 29.3125 72.3438 29.0521 72.5312 28.7188C72.7188 28.3646 73 27.6979 73.375 26.7188C73.7708 25.7396 74.375 24.7188 75.1875 23.6562C75.2708 23.6146 75.3958 23.3854 75.5625 22.9688C75.7292 22.5312 75.9896 22.1042 76.3438 21.6875L76.7188 21.0312C76.8438 20.8229 77.0625 20.4583 77.375 19.9375C77.6875 19.4167 77.9688 19.0104 78.2188 18.7188C78.4896 18.4062 78.6875 18.0833 78.8125 17.75C78.9583 17.4167 79.125 17.1771 79.3125 17.0312C79.5 16.8854 79.6875 16.625 79.875 16.25C80.0833 15.8542 80.3958 15.6562 80.8125 15.6562C81.625 15.6562 82.2083 15.9896 82.5625 16.6562C82.9375 17.3229 83.125 17.9062 83.125 18.4062C83.125 18.4688 83 18.9167 82.75 19.75L82.2812 22.5625C81.8646 22.7708 81.6562 23.0104 81.6562 23.2812C81.6562 24.3854 81.2292 25.5312 80.375 26.7188C80.2917 26.8021 80.2188 27.0729 80.1562 27.5312C80.1146 27.9896 79.9375 28.3646 79.625 28.6562C79.3125 28.9479 79.0312 29.4375 78.7812 30.125L75.875 34.2812L75.625 34.5312C75.5 34.6146 75.3542 34.7917 75.1875 35.0625L74.6875 34.9062C74.125 34.9062 73.8438 35.0833 73.8438 35.4375C73.8438 35.5625 73.8854 35.7292 73.9688 35.9375V36C73.9688 36.0208 73.1979 37.1146 71.6562 39.2812C71.5729 39.4062 71.4271 39.8125 71.2188 40.5L70.7812 41.4375C70.3438 42.0417 70.0312 42.6354 69.8438 43.2188C69.6771 43.7812 69.4479 44.2396 69.1562 44.5938C68.7396 45.5312 68.5312 46.0208 68.5312 46.0625C68.5312 46.1875 68.5938 46.25 68.7188 46.25C68.8438 46.25 69.1354 45.9375 69.5938 45.3125C70.0729 44.6875 70.4583 44.2708 70.75 44.0625C71.0625 43.8542 71.3229 43.5625 71.5312 43.1875L71.8438 42.9688C71.9271 42.9271 72.1042 42.8021 72.375 42.5938L72.6875 42.6562C72.8542 42.5312 72.9583 42.3854 73 42.2188C73.0417 42.0521 73.1042 41.9271 73.1875 41.8438C73.7292 41.7812 74.0625 41.5833 74.1875 41.25C74.3333 40.9167 74.5 40.75 74.6875 40.75C74.8542 40.75 75.0729 40.5625 75.3438 40.1875C75.6146 39.7917 75.9896 39.4792 76.4688 39.25C76.9688 39 77.3333 38.7812 77.5625 38.5938C77.8125 38.4062 78.3021 38.1875 79.0312 37.9375C79.7604 37.6667 80.25 37.5312 80.5 37.5312H80.6875L80.9375 37.5938L81.4062 37.5312C82.1354 37.5312 82.8646 37.7396 83.5938 38.1562C84.3229 38.5521 84.6354 39.1771 84.5312 40.0312L84.2812 41.9688L83.9375 43.5C83.8958 43.75 83.7292 44.3021 83.4375 45.1562C83.1458 46.0104 83 46.5 83 46.625L82.875 47.2188L83 48.0312L82.9375 48.6875C82.9375 48.8958 83.0417 49 83.25 49C83.3333 49 83.5625 48.8125 83.9375 48.4375C84.1667 48.4792 84.3854 48.3542 84.5938 48.0625C84.8021 47.7708 85.0833 47.4688 85.4375 47.1562C85.4375 47.0729 85.5729 47 85.8438 46.9375C86.1146 46.8542 86.4896 46.6042 86.9688 46.1875C87.0521 46 87.4583 45.6042 88.1875 45C88.9167 44.375 89.6146 43.8958 90.2812 43.5625L90.4688 43.3125C90.8229 42.9583 91.1458 42.7812 91.4375 42.7812C91.7292 42.7812 91.875 42.9375 91.875 43.25C91.875 43.4583 91.8229 43.6771 91.7188 43.9062C91.6146 44.1354 91.5417 44.4375 91.5 44.8125C91.4583 45.1667 91.25 45.6875 90.875 46.375L90.75 46.6875C90.6042 47.0417 90.4271 47.25 90.2188 47.3125C90.0104 47.375 89.7812 47.5521 89.5312 47.8438C89.3021 48.1146 88.8125 48.375 88.0625 48.625C87.7292 49.25 87.4688 49.5625 87.2812 49.5625L86.7188 49.3125C86.2812 49.6667 86.0625 50.0312 86.0625 50.4062C85.5208 50.8646 85.1979 51.1667 85.0938 51.3125L84.4688 51.25C84.3021 51.25 84.2188 51.4792 84.2188 51.9375C84.2188 51.9792 84 52.125 83.5625 52.375C83.1458 52.6042 82.8229 52.8125 82.5938 53C82.3646 53.1875 81.875 53.2812 81.125 53.2812C81.0417 53.2812 80.9167 53.2083 80.75 53.0625C80.5833 52.9167 80.3333 52.7917 80 52.6875C79.6875 52.5833 79.4688 52.3438 79.3438 51.9688C79.2188 51.5729 79.0833 51.2708 78.9375 51.0625C78.7917 50.8333 78.7188 50.6562 78.7188 50.5312L78.7812 49.9062L78.625 49.25L78.9062 48.8125C78.7812 48.5208 78.7188 48.3229 78.7188 48.2188L79.0312 46.3125C79.2604 44.9375 79.4479 44.0417 79.5938 43.625C79.6354 43.5833 79.6562 43.4583 79.6562 43.25L79.5938 42.4688L79.6562 42.0312C79.6562 41.7188 79.5521 41.5521 79.3438 41.5312C79.1354 41.5104 79.0104 41.4583 78.9688 41.375C78.6979 41.25 78.5417 41.1875 78.5 41.1875C78.3333 41.1875 78.1875 41.3229 78.0625 41.5938C77.9375 41.8438 77.7708 42.0729 77.5625 42.2812L76.7812 42.1562V42.2188C76.7812 42.3854 76.5 42.7083 75.9375 43.1875C75.4167 43.3125 74.9688 43.5833 74.5938 44C74.4271 44 74.1354 44.1667 73.7188 44.5C73.3229 44.8125 73.0625 44.9896 72.9375 45.0312L72.6875 45.5312L72.1875 45.6875C72.0417 46.1042 71.6979 46.375 71.1562 46.5L70.8438 47.0938C70.4062 47.1354 70.1042 47.3646 69.9375 47.7812C69.7708 48.1771 69.6458 48.375 69.5625 48.375C69.5208 48.375 69.4479 48.3542 69.3438 48.3125C69.2604 48.25 69.1771 48.2188 69.0938 48.2188C68.6354 48.2188 68.3854 48.5625 68.3438 49.25C68.3438 49.3333 67.9167 49.8229 67.0625 50.7188C66.2083 51.6146 65.75 52.0729 65.6875 52.0938C65.625 52.1146 65.5 52.3333 65.3125 52.75C65.1458 53.1458 64.9062 53.4479 64.5938 53.6562C64.2812 53.8438 64.0417 54 63.875 54.125C63.7292 54.25 63.6146 54.3125 63.5312 54.3125C63.0938 54.3125 62.7396 54 62.4688 53.375C62.1979 52.75 62.0625 52.4271 62.0625 52.4062L62.25 51.75L62.1875 51.1875C62.1875 51.1667 62.3125 50.75 62.5625 49.9375C62.8333 49.1042 63.1354 48.4583 63.4688 48C63.8021 47.5208 64.0625 46.75 64.25 45.6875C63.3125 46.3125 62.75 46.625 62.5625 46.625C62.1458 46.625 61.9375 46.3542 61.9375 45.8125C61.9375 44.8125 62.2604 43.9167 62.9062 43.125ZM92.6875 41.8438L93.125 42.0312C93.1667 41.6771 93.3646 41.375 93.7188 41.125H93.9688C94.1771 41.125 94.4479 40.8438 94.7812 40.2812L95.3125 39.9688C95.3958 40.0104 95.5208 40.0312 95.6875 40.0312C95.8125 40.0312 95.9271 39.9479 96.0312 39.7812C96.1562 39.6146 96.4479 39.2917 96.9062 38.8125H97.0312C97.1562 38.8125 97.3021 38.7188 97.4688 38.5312C97.6562 38.3438 97.8958 38.25 98.1875 38.25L99.25 37.9688C99.5833 37.8854 99.7708 37.8438 99.8125 37.8438C100 37.7812 100.458 38.1667 101.188 39C101.917 39.8125 102.281 40.6042 102.281 41.375C102.281 41.8125 102.052 42.0729 101.594 42.1562L101.438 42.2812V42.9062L100.906 44.0625C100.76 44.375 100.583 44.5729 100.375 44.6562C100.188 44.9896 100.052 45.2188 99.9688 45.3438L99.5312 45.4062L99.3438 45.5938V46.375C99.1562 46.625 98.8854 47.1771 98.5312 48.0312C98.1771 48.8646 98 49.3958 98 49.625C98 50.0208 98.0833 50.2188 98.25 50.2188C98.375 50.2188 98.5 50.1667 98.625 50.0625C98.75 49.9583 98.9167 49.8438 99.125 49.7188C99.3542 49.5729 99.5208 49.4271 99.625 49.2812C99.7292 49.1354 99.9479 49.0104 100.281 48.9062C100.615 48.7812 100.927 48.5625 101.219 48.25C101.51 47.9375 101.719 47.7292 101.844 47.625C101.969 47.5208 102.104 47.3854 102.25 47.2188C102.396 47.0312 102.49 46.9375 102.531 46.9375C102.656 46.9375 102.854 46.8958 103.125 46.8125C103.167 46.5833 103.208 46.4167 103.25 46.3125L104 45.9375L105.812 44.3125L106.062 44C106.396 43.9167 106.604 43.8542 106.688 43.8125C106.854 43.25 107.135 42.8438 107.531 42.5938C107.531 42.5104 107.635 42.4479 107.844 42.4062C108.01 42.0729 108.219 41.8125 108.469 41.625C108.74 41.4167 108.958 41.1667 109.125 40.875L109.844 40.2812C110.052 40.1979 110.198 40.0729 110.281 39.9062C111.365 38.9479 112.031 38.4062 112.281 38.2812C112.552 38.1354 112.979 38.0625 113.562 38.0625C114.146 38.0625 114.615 38.2917 114.969 38.75C115.344 39.1875 115.74 39.5208 116.156 39.75C116.594 39.9792 116.812 40.4167 116.812 41.0625C116.812 41.6667 116.344 42.8229 115.406 44.5312C114.802 46.3229 114.49 47.4271 114.469 47.8438C114.448 48.2396 114.354 48.4688 114.188 48.5312C114.021 48.5938 113.938 48.6667 113.938 48.75V48.875C113.938 49.375 114.021 49.625 114.188 49.625C114.312 49.625 114.479 49.5208 114.688 49.3125C114.917 49.1042 115.365 48.875 116.031 48.625L116.312 48.6875C116.917 47.7708 117.323 47.2812 117.531 47.2188C117.74 47.1354 117.948 46.9479 118.156 46.6562C118.365 46.3438 118.615 46.1771 118.906 46.1562C119.219 46.1354 119.417 46.0833 119.5 46C119.521 45.5 119.927 44.9375 120.719 44.3125C121.531 43.6875 122 43.375 122.125 43.375C122.333 43.375 122.5 43.5312 122.625 43.8438C122.75 44.1562 122.875 44.375 123 44.5C123.146 44.6042 123.219 44.6979 123.219 44.7812V45.3438C123.219 45.6146 123.083 45.7917 122.812 45.875C122.604 46.3333 122.417 46.6042 122.25 46.6875L121.688 46.625C121.583 46.75 121.49 46.8646 121.406 46.9688C121.344 47.0729 121.302 47.1146 121.281 47.0938C121.115 47.1354 120.812 47.4167 120.375 47.9375C119.958 48.4375 119.583 48.8542 119.25 49.1875L119.125 49.375C118.958 49.5 118.802 49.5833 118.656 49.625L118.094 50.0938C117.885 49.9688 117.76 49.9062 117.719 49.9062C117.677 49.9062 117.583 49.9896 117.438 50.1562C117.312 50.3229 117.042 50.5417 116.625 50.8125C116.229 51.0625 115.927 51.3542 115.719 51.6875L115.219 52.1875L114.562 52.2812C114.5 52.2812 114.396 52.375 114.25 52.5625L113.688 53.2812C113.417 53.6354 112.99 53.8125 112.406 53.8125C112.281 53.8125 112.115 53.7083 111.906 53.5C111.719 53.2708 111.531 53.0833 111.344 52.9375C111.177 52.7708 110.781 52.3021 110.156 51.5312C109.552 50.7396 109.25 50.3229 109.25 50.2812L109.438 49.1875L109.375 48.4375C109.375 48.2917 109.469 48.0729 109.656 47.7812C109.865 47.4688 109.969 47.3021 109.969 47.2812L109.906 46.0625C109.948 46.0208 109.99 45.9583 110.031 45.875L110.469 45.1562C110.427 44.9479 110.406 44.7188 110.406 44.4688L110.531 43.4375C110.156 43.6042 109.823 43.9479 109.531 44.4688C109.26 44.9688 108.896 45.2188 108.438 45.2188C108.042 45.9271 107.74 46.2708 107.531 46.25C107.448 46.3333 107.385 46.4167 107.344 46.5L106.906 46.75L106.375 46.6875L106.188 47.4688C105.729 47.7188 105.427 47.9479 105.281 48.1562C105.156 48.3438 104.948 48.5417 104.656 48.75L104.125 49.25H103.625C103.542 49.8125 103.219 50.2812 102.656 50.6562L102.406 50.9688L101.844 50.9062C101.635 51.5729 101.375 51.9792 101.062 52.125C100.708 52.125 100.219 52.4479 99.5938 53.0938C98.9896 53.7396 98.5625 54.0625 98.3125 54.0625C96.5 54.0625 95.0312 52.9271 93.9062 50.6562C93.8646 50.5729 93.7604 50.4167 93.5938 50.1875C93.4479 49.9583 93.375 49.6042 93.375 49.125C93.375 48.3125 93.4792 47.7604 93.6875 47.4688C93.9167 47.1771 94.1979 46.6354 94.5312 45.8438C94.8854 45.0312 95.1458 44.6771 95.3125 44.7812C95.3542 44.6979 95.375 44.5729 95.375 44.4062C95.7083 44.0104 95.875 43.7083 95.875 43.5C95.875 43.4167 95.8333 43.375 95.75 43.375C95.7083 43.375 95.5833 43.4375 95.375 43.5625L94.9375 43.75C94.75 43.7917 94.6146 43.875 94.5312 44C94.4479 44.125 94.3021 44.25 94.0938 44.375C93.8854 44.4792 93.7188 44.5729 93.5938 44.6562H93.5C93.375 44.5312 93.2917 44.4688 93.25 44.4688C93.125 44.8021 93.0208 45.0104 92.9375 45.0938L92.5625 45.1562C92.1042 45.6354 91.8125 45.875 91.6875 45.875C91.6042 45.875 91.4167 45.8021 91.125 45.6562C90.8333 45.5104 90.6875 45.3646 90.6875 45.2188L90.9062 44V43.4375C90.9062 43.3958 90.9896 43.3125 91.1562 43.1875C91.1979 43.1875 91.3646 42.9688 91.6562 42.5312C91.9479 42.0729 92.2917 41.8438 92.6875 41.8438ZM133.094 53.1562L132.875 53.5938C132.792 53.8229 132.583 53.9375 132.25 53.9375C132.208 53.9375 131.865 54.0625 131.219 54.3125C130.573 54.5625 130.042 54.6875 129.625 54.6875L128.781 54.75C128.281 54.75 127.792 54.6146 127.312 54.3438C126.833 54.0521 126.49 53.7917 126.281 53.5625C126.073 53.3333 125.781 52.6458 125.406 51.5C125.052 50.3542 124.875 49.6667 124.875 49.4375C124.875 48.625 125.094 48.1771 125.531 48.0938C125.531 47.9688 125.427 47.7396 125.219 47.4062C125.031 47.0521 124.938 46.8542 124.938 46.8125C124.938 45.5208 125.219 44.5208 125.781 43.8125C125.531 43 125.406 42.5521 125.406 42.4688C125.406 42.4271 125.458 42.2604 125.562 41.9688C125.667 41.6562 125.74 41.375 125.781 41.125C125.823 40.875 125.885 40.6667 125.969 40.5L126.031 39.9688C126.073 39.7188 126.229 39.5938 126.5 39.5938C126.625 39.5938 126.688 39.5104 126.688 39.3438V39.0938L126.625 38.6875C126.625 38.1042 126.771 37.6875 127.062 37.4375C127.354 37.1667 127.542 36.7812 127.625 36.2812C127.729 35.7604 127.854 35.4375 128 35.3125C128.146 35.1875 128.26 34.9688 128.344 34.6562L128.781 33.7812L129.125 32.625C129.167 32.3958 129.292 32.25 129.5 32.1875C129.708 32.125 129.812 32.0312 129.812 31.9062L129.75 31.5312C129.917 31.0938 130.031 30.7812 130.094 30.5938C130.156 30.4062 130.344 30.25 130.656 30.125C130.948 29.4167 131.198 28.9167 131.406 28.625C131.635 28.3333 131.812 28 131.938 27.625C132.062 27.25 132.375 26.8854 132.875 26.5312C132.917 26.4479 133 26.2396 133.125 25.9062C133.271 25.5521 133.448 25.3542 133.656 25.3125C133.865 25.2708 133.969 25.1875 133.969 25.0625L133.844 24.8125C133.844 24.6458 134 24.3438 134.312 23.9062L134.688 23.2188C134.875 23.0104 135.083 22.8542 135.312 22.75C135.604 22.1667 135.979 21.5833 136.438 21C136.896 20.4167 137.292 19.7917 137.625 19.125C138.104 18.5625 138.552 18.1562 138.969 17.9062L140 16.625C140.25 16.1042 140.5 15.8438 140.75 15.8438C141.146 15.0938 141.635 14.6042 142.219 14.375C142.323 14.3333 142.615 14.1146 143.094 13.7188C143.594 13.3021 144.031 13.0938 144.406 13.0938C144.74 13.0938 145.167 13.4583 145.688 14.1875C146.208 14.9167 146.469 15.5312 146.469 16.0312C146.469 16.1562 146.396 16.3438 146.25 16.5938C146.125 16.8229 146.052 17.0729 146.031 17.3438C146.01 17.5938 145.885 18.3229 145.656 19.5312C145.427 20.7396 145.229 21.4271 145.062 21.5938L144.219 23.2188C144.135 23.4688 144.042 23.6146 143.938 23.6562C143.833 23.6979 143.708 23.8646 143.562 24.1562L143.719 24.8125H143.656C143.427 25.0625 143.188 25.5312 142.938 26.2188C142.604 26.7188 142.312 27.1979 142.062 27.6562C141.833 28.0938 141.719 28.3854 141.719 28.5312L141.531 28.9688C141.073 29.6562 140.771 30.2083 140.625 30.625C140.417 30.7917 140.25 31.0208 140.125 31.3125C140.021 31.6042 139.875 31.8229 139.688 31.9688C139.5 32.0938 139.375 32.3229 139.312 32.6562C139.271 32.9896 139.219 33.1875 139.156 33.25L138.531 33.1875V33.25L138.594 34.1562C138.594 34.2396 138.49 34.3333 138.281 34.4375C138.094 34.5417 137.927 34.7708 137.781 35.125C137.635 35.4583 137.375 35.6458 137 35.6875C136.812 35.8125 136.698 35.9375 136.656 36.0625L136.781 36.6562C136.74 36.6979 136.573 36.9167 136.281 37.3125C136.01 37.7083 135.844 37.9167 135.781 37.9375L135.125 38C135 38.0417 134.938 38.4062 134.938 39.0938C134.938 39.5521 134.729 39.8646 134.312 40.0312C133.229 41.6979 132.594 42.625 132.406 42.8125C132.24 43 131.906 43.1458 131.406 43.25C131.406 43.2917 131.365 43.3125 131.281 43.3125C131.073 43.3125 130.625 43.0104 129.938 42.4062H129.875C129.604 43.6146 129.385 44.3021 129.219 44.4688C129.073 44.6354 129 44.8229 129 45.0312L129.312 45.5938V45.6875C129.312 46.2708 129.208 46.9896 129 47.8438V48.0312L129.125 48.6875V49.8438L129.062 50.5312C129.229 50.8229 129.312 51.0833 129.312 51.3125C129.312 51.9792 129.479 52.3125 129.812 52.3125C129.979 52.3125 130.24 52.1042 130.594 51.6875L130.969 51.5C131.344 51.3333 131.698 50.9583 132.031 50.375C132.385 49.7917 132.562 49.2917 132.562 48.875C132.562 48.4375 132.135 48.2188 131.281 48.2188C130.865 48.1354 130.656 47.6875 130.656 46.875C130.656 46.5 130.812 46.1667 131.125 45.875C131.438 45.5625 131.708 45.2396 131.938 44.9062C132.438 44.1354 132.969 43.75 133.531 43.75L135.125 43.1875C135.292 43.1875 135.448 43.2188 135.594 43.2812C135.76 43.3438 135.969 43.4167 136.219 43.5C136.885 43.25 137.229 43.125 137.25 43.125C137.979 43.125 138.469 43.5 138.719 44.25C138.719 44.3958 138.885 44.4688 139.219 44.4688C139.948 44.4688 140.552 44.25 141.031 43.8125C141.531 43.3542 142.052 42.9896 142.594 42.7188C143.156 42.4271 143.604 42.1354 143.938 41.8438C144.292 41.5312 144.51 41.375 144.594 41.375H145.062C145.104 41.375 145.229 41.2396 145.438 40.9688C145.646 40.6979 146.031 40.5625 146.594 40.5625C146.802 40.5625 146.906 40.6458 146.906 40.8125C146.906 41.9167 146.74 42.5729 146.406 42.7812C146.094 42.9688 145.708 43.4167 145.25 44.125L144.906 44.3125C144.698 44.5 144.51 44.7083 144.344 44.9375C144.177 45.1667 144.01 45.3021 143.844 45.3438C143.365 46.0729 143 46.4375 142.75 46.4375C142.625 46.4375 142.479 46.3854 142.312 46.2812C142.167 46.1771 142.073 46.125 142.031 46.125C141.906 46.125 141.802 46.375 141.719 46.875C141.594 47.0625 141.25 47.3646 140.688 47.7812C140.604 47.7812 140.458 47.6562 140.25 47.4062C140.25 47.3646 140.229 47.3438 140.188 47.3438C139.854 47.3438 139.646 47.5312 139.562 47.9062C139.5 48.2812 139.271 48.4896 138.875 48.5312L137.625 48.75L136.906 48.6875C136.74 48.6875 136.375 49.1979 135.812 50.2188C135.271 51.2396 134.938 51.7708 134.812 51.8125C134.167 52.0208 133.719 52.4062 133.469 52.9688L133.094 53.1562ZM143.719 17.3125V16.9375C143.24 17.0625 142.896 17.5104 142.688 18.2812L142.438 18.5312C142.042 18.7812 141.729 19.1354 141.5 19.5938C141.271 20.0312 140.896 20.5729 140.375 21.2188L140.25 21.5938L139.531 22.5L139.406 23.0938C139.365 23.1771 139.208 23.3125 138.938 23.5C138.667 23.6875 138.479 23.9479 138.375 24.2812C138.292 24.5938 138.062 24.9792 137.688 25.4375C137.333 25.875 137.083 26.1771 136.938 26.3438C136.812 26.4896 136.573 27.0417 136.219 28L136.031 28.3125C136.031 28.5 135.927 28.6562 135.719 28.7812L134.562 30.1875C134.562 30.2708 134.521 30.5729 134.438 31.0938C134.125 31.1354 133.927 31.2604 133.844 31.4688L133.344 32.625C133.302 32.75 133.198 32.8958 133.031 33.0625C132.76 34.0625 132.375 34.7917 131.875 35.25L131.156 36.7188C131.073 36.8854 131.01 37.1146 130.969 37.4062L130.906 37.5938C130.656 38.0729 130.531 38.4375 130.531 38.6875C130.531 38.7708 130.51 39.0312 130.469 39.4688H130.531C130.573 39.4688 130.656 39.4167 130.781 39.3125C130.906 39.2083 131.073 39.0938 131.281 38.9688C131.49 38.8229 131.656 38.5625 131.781 38.1875C131.906 37.8125 132.104 37.5521 132.375 37.4062C132.667 37.2396 132.854 37.0729 132.938 36.9062L134.812 34.4062C134.938 34.2396 135.104 34.0521 135.312 33.8438C135.542 33.6146 135.656 33.4375 135.656 33.3125L135.906 32.875C136.031 32.75 136.24 32.5208 136.531 32.1875C136.844 31.8542 137.083 31.625 137.25 31.5C137.417 31.375 137.51 31.1771 137.531 30.9062C137.552 30.6354 137.667 30.3542 137.875 30.0625L138 29.8125C138.229 29.5417 138.417 29.3438 138.562 29.2188C138.708 29.0938 138.792 28.9583 138.812 28.8125C138.833 28.6667 139.073 28.3958 139.531 28C139.573 27.6875 139.812 27.1875 140.25 26.5C140.708 25.7917 141.052 25.1562 141.281 24.5938C141.51 24.0312 141.729 23.6458 141.938 23.4375C142.167 23.2083 142.312 22.8125 142.375 22.25L142.688 21.75L143.656 19.0625L143.5 18.4062L143.719 17.3125ZM142.469 43.125L142.719 42.7812C143.26 42.6562 143.604 42.4479 143.75 42.1562C143.812 42.0104 144.333 41.4688 145.312 40.5312C146.292 39.5938 146.833 39.0938 146.938 39.0312C147.604 37.8229 148.01 36.9167 148.156 36.3125C148.406 36.1875 148.531 36.0417 148.531 35.875L148.781 35.375L149.062 35.3125L149.188 35.1875V34.9062C149.188 34.5312 149.594 33.6562 150.406 32.2812C151.219 30.5938 151.656 29.6667 151.719 29.5C151.781 29.3125 151.906 29.0521 152.094 28.7188C152.281 28.3646 152.562 27.6979 152.938 26.7188C153.333 25.7396 153.938 24.7188 154.75 23.6562C154.833 23.6146 154.958 23.3854 155.125 22.9688C155.292 22.5312 155.552 22.1042 155.906 21.6875L156.281 21.0312C156.406 20.8229 156.625 20.4583 156.938 19.9375C157.25 19.4167 157.531 19.0104 157.781 18.7188C158.052 18.4062 158.25 18.0833 158.375 17.75C158.521 17.4167 158.688 17.1771 158.875 17.0312C159.062 16.8854 159.25 16.625 159.438 16.25C159.646 15.8542 159.958 15.6562 160.375 15.6562C161.188 15.6562 161.771 15.9896 162.125 16.6562C162.5 17.3229 162.688 17.9062 162.688 18.4062C162.688 18.4688 162.562 18.9167 162.312 19.75L161.844 22.5625C161.427 22.7708 161.219 23.0104 161.219 23.2812C161.219 24.3854 160.792 25.5312 159.938 26.7188C159.854 26.8021 159.781 27.0729 159.719 27.5312C159.677 27.9896 159.5 28.3646 159.188 28.6562C158.875 28.9479 158.594 29.4375 158.344 30.125L155.438 34.2812L155.188 34.5312C155.062 34.6146 154.917 34.7917 154.75 35.0625L154.25 34.9062C153.688 34.9062 153.406 35.0833 153.406 35.4375C153.406 35.5625 153.448 35.7292 153.531 35.9375V36C153.531 36.0208 152.76 37.1146 151.219 39.2812C151.135 39.4062 150.99 39.8125 150.781 40.5L150.344 41.4375C149.906 42.0417 149.594 42.6354 149.406 43.2188C149.24 43.7812 149.01 44.2396 148.719 44.5938C148.302 45.5312 148.094 46.0208 148.094 46.0625C148.094 46.1875 148.156 46.25 148.281 46.25C148.406 46.25 148.698 45.9375 149.156 45.3125C149.635 44.6875 150.021 44.2708 150.312 44.0625C150.625 43.8542 150.885 43.5625 151.094 43.1875L151.406 42.9688C151.49 42.9271 151.667 42.8021 151.938 42.5938L152.25 42.6562C152.417 42.5312 152.521 42.3854 152.562 42.2188C152.604 42.0521 152.667 41.9271 152.75 41.8438C153.292 41.7812 153.625 41.5833 153.75 41.25C153.896 40.9167 154.062 40.75 154.25 40.75C154.417 40.75 154.635 40.5625 154.906 40.1875C155.177 39.7917 155.552 39.4792 156.031 39.25C156.531 39 156.896 38.7812 157.125 38.5938C157.375 38.4062 157.865 38.1875 158.594 37.9375C159.323 37.6667 159.812 37.5312 160.062 37.5312H160.25L160.5 37.5938L160.969 37.5312C161.698 37.5312 162.427 37.7396 163.156 38.1562C163.885 38.5521 164.198 39.1771 164.094 40.0312L163.844 41.9688L163.5 43.5C163.458 43.75 163.292 44.3021 163 45.1562C162.708 46.0104 162.562 46.5 162.562 46.625L162.438 47.2188L162.562 48.0312L162.5 48.6875C162.5 48.8958 162.604 49 162.812 49C162.896 49 163.125 48.8125 163.5 48.4375C163.729 48.4792 163.948 48.3542 164.156 48.0625C164.365 47.7708 164.646 47.4688 165 47.1562C165 47.0729 165.135 47 165.406 46.9375C165.677 46.8542 166.052 46.6042 166.531 46.1875C166.615 46 167.021 45.6042 167.75 45C168.479 44.375 169.177 43.8958 169.844 43.5625L170.031 43.3125C170.385 42.9583 170.708 42.7812 171 42.7812C171.292 42.7812 171.438 42.9375 171.438 43.25C171.438 43.4583 171.385 43.6771 171.281 43.9062C171.177 44.1354 171.104 44.4375 171.062 44.8125C171.021 45.1667 170.812 45.6875 170.438 46.375L170.312 46.6875C170.167 47.0417 169.99 47.25 169.781 47.3125C169.573 47.375 169.344 47.5521 169.094 47.8438C168.865 48.1146 168.375 48.375 167.625 48.625C167.292 49.25 167.031 49.5625 166.844 49.5625L166.281 49.3125C165.844 49.6667 165.625 50.0312 165.625 50.4062C165.083 50.8646 164.76 51.1667 164.656 51.3125L164.031 51.25C163.865 51.25 163.781 51.4792 163.781 51.9375C163.781 51.9792 163.562 52.125 163.125 52.375C162.708 52.6042 162.385 52.8125 162.156 53C161.927 53.1875 161.438 53.2812 160.688 53.2812C160.604 53.2812 160.479 53.2083 160.312 53.0625C160.146 52.9167 159.896 52.7917 159.562 52.6875C159.25 52.5833 159.031 52.3438 158.906 51.9688C158.781 51.5729 158.646 51.2708 158.5 51.0625C158.354 50.8333 158.281 50.6562 158.281 50.5312L158.344 49.9062L158.188 49.25L158.469 48.8125C158.344 48.5208 158.281 48.3229 158.281 48.2188L158.594 46.3125C158.823 44.9375 159.01 44.0417 159.156 43.625C159.198 43.5833 159.219 43.4583 159.219 43.25L159.156 42.4688L159.219 42.0312C159.219 41.7188 159.115 41.5521 158.906 41.5312C158.698 41.5104 158.573 41.4583 158.531 41.375C158.26 41.25 158.104 41.1875 158.062 41.1875C157.896 41.1875 157.75 41.3229 157.625 41.5938C157.5 41.8438 157.333 42.0729 157.125 42.2812L156.344 42.1562V42.2188C156.344 42.3854 156.062 42.7083 155.5 43.1875C154.979 43.3125 154.531 43.5833 154.156 44C153.99 44 153.698 44.1667 153.281 44.5C152.885 44.8125 152.625 44.9896 152.5 45.0312L152.25 45.5312L151.75 45.6875C151.604 46.1042 151.26 46.375 150.719 46.5L150.406 47.0938C149.969 47.1354 149.667 47.3646 149.5 47.7812C149.333 48.1771 149.208 48.375 149.125 48.375C149.083 48.375 149.01 48.3542 148.906 48.3125C148.823 48.25 148.74 48.2188 148.656 48.2188C148.198 48.2188 147.948 48.5625 147.906 49.25C147.906 49.3333 147.479 49.8229 146.625 50.7188C145.771 51.6146 145.312 52.0729 145.25 52.0938C145.188 52.1146 145.062 52.3333 144.875 52.75C144.708 53.1458 144.469 53.4479 144.156 53.6562C143.844 53.8438 143.604 54 143.438 54.125C143.292 54.25 143.177 54.3125 143.094 54.3125C142.656 54.3125 142.302 54 142.031 53.375C141.76 52.75 141.625 52.4271 141.625 52.4062L141.812 51.75L141.75 51.1875C141.75 51.1667 141.875 50.75 142.125 49.9375C142.396 49.1042 142.698 48.4583 143.031 48C143.365 47.5208 143.625 46.75 143.812 45.6875C142.875 46.3125 142.312 46.625 142.125 46.625C141.708 46.625 141.5 46.3542 141.5 45.8125C141.5 44.8125 141.823 43.9167 142.469 43.125ZM186.062 51.25L184.594 52.5312C184.51 52.4479 184.427 52.4062 184.344 52.4062C184.135 52.4062 183.875 52.5938 183.562 52.9688C183.271 53.3438 183.062 53.5312 182.938 53.5312L182.625 53.4688C182.104 53.8646 181.729 54.0938 181.5 54.1562C181.271 54.2188 180.99 54.3333 180.656 54.5C180.344 54.6667 180.052 54.7604 179.781 54.7812C179.531 54.8021 179.323 54.8958 179.156 55.0625C178.99 55.2083 178.583 55.2812 177.938 55.2812L177.438 55.2188C177.167 55.3438 176.99 55.4062 176.906 55.4062C176.74 55.4062 176.562 55.3229 176.375 55.1562C176.188 54.9688 175.979 54.8646 175.75 54.8438C175.542 54.8229 175.323 54.6771 175.094 54.4062C174.865 54.1354 174.646 53.9479 174.438 53.8438C174.25 53.7396 174.094 53.5938 173.969 53.4062L173.531 53.0312C173.177 52.7812 172.833 52.3229 172.5 51.6562C172.167 50.9896 172 50.4688 172 50.0938V49.9688L172.062 49.375L172 48.6875C172.083 48.6042 172.188 48.4271 172.312 48.1562V47.1562L173.062 44.6562C173.104 44.5521 173.021 44.4167 172.812 44.25C172.604 44.5625 172.396 44.75 172.188 44.8125C171.979 44.875 171.833 45.0208 171.75 45.25C171.688 45.4792 171.573 45.5938 171.406 45.5938L171.031 45.4688C170.99 45.5104 170.896 45.7292 170.75 46.125C170.604 46.5 170.354 46.6875 170 46.6875C169.625 46.6875 169.438 46.5417 169.438 46.25L169.5 45.6875L169.312 44.9062C169.312 44.7396 169.479 44.4167 169.812 43.9375C170.146 43.4375 170.448 43.1562 170.719 43.0938C171.01 43.0104 171.25 42.8125 171.438 42.5C171.646 42.1667 172.083 41.7708 172.75 41.3125C173.125 41.2292 173.448 40.9583 173.719 40.5C174.01 40.2708 174.385 40.0833 174.844 39.9375C175.323 39.7917 175.677 39.5833 175.906 39.3125C176.156 39.0208 176.865 38.5833 178.031 38C179.219 37.3958 180.083 37.0938 180.625 37.0938C180.792 37.0938 181.021 37.0521 181.312 36.9688C181.604 36.8646 181.875 36.7812 182.125 36.7188C182.375 36.6354 182.635 36.5208 182.906 36.375C183.177 36.2083 183.396 36.125 183.562 36.125L184.469 36.4375C185.135 36.625 185.542 36.7604 185.688 36.8438C185.729 36.8854 185.938 36.9792 186.312 37.125C186.708 37.25 187.104 37.4271 187.5 37.6562C187.917 37.8854 188.125 38.3125 188.125 38.9375C187.771 39.4583 187.594 39.7396 187.594 39.7812C187.594 39.8646 187.833 39.9896 188.312 40.1562C188.479 40.4688 188.729 40.875 189.062 41.375L189.406 42.4688L189.469 45.0312L189.406 45.2812C189.177 45.4896 189.062 45.625 189.062 45.6875L189.156 46.3125L188.906 47.1875C188.844 47.4583 188.74 47.6354 188.594 47.7188C188.448 47.8021 188.354 47.9062 188.312 48.0312L188.125 48.2812C188.083 48.3438 187.99 48.5312 187.844 48.8438C187.719 49.1354 187.573 49.3646 187.406 49.5312C187.24 49.6979 187.135 49.8958 187.094 50.125C187.052 50.3542 186.948 50.5208 186.781 50.625C186.615 50.7292 186.49 50.8438 186.406 50.9688C186.344 51.0729 186.229 51.1667 186.062 51.25ZM176.344 52.0625L176.469 52.7812L176.531 52.8438H177.031L177.188 52.9062C177.604 52.9896 177.917 53.0312 178.125 53.0312C178.771 53.0312 179.281 52.875 179.656 52.5625C180.052 52.2292 180.365 52.0625 180.594 52.0625C180.823 52.0625 181.01 51.9062 181.156 51.5938C181.323 51.2812 181.427 51.125 181.469 51.125H181.906L182.031 51.0625C182.031 50.5833 182.24 50.2396 182.656 50.0312C183.094 49.8229 183.396 49.5521 183.562 49.2188C183.75 48.8646 183.958 48.6042 184.188 48.4375C184.417 48.25 184.573 48.0104 184.656 47.7188L184.906 47.3438C184.99 47.2604 185.031 47.1042 185.031 46.875L185.625 45.75C185.75 45.2292 185.812 44.8229 185.812 44.5312C185.812 44.0938 185.583 43.75 185.125 43.5C184.688 43.25 184.469 42.7604 184.469 42.0312C184.469 41.5521 184.708 41.1146 185.188 40.7188C185.688 40.3021 185.938 40.0521 185.938 39.9688C185.938 39.8438 185.875 39.7812 185.75 39.7812C185.688 39.7812 185.448 39.8646 185.031 40.0312C184.885 40.3229 184.146 40.7083 182.812 41.1875C182.375 40.9792 182.135 40.875 182.094 40.875C181.969 40.875 181.844 41 181.719 41.25C181.594 41.5 181.469 41.6771 181.344 41.7812H180.938C180.896 41.7812 180.76 41.9167 180.531 42.1875C180.302 42.4583 180.01 42.5938 179.656 42.5938L179.281 42.9688C179.302 43.3021 179.094 43.6458 178.656 44L178.312 44.4062C178.104 44.6562 177.833 44.9479 177.5 45.2812L176.938 46.6875C176.708 47.2292 176.594 47.6354 176.594 47.9062C176.531 48.0312 176.385 48.1667 176.156 48.3125C175.948 48.4375 175.844 48.6042 175.844 48.8125C175.844 48.8542 175.917 48.9583 176.062 49.125C176.208 49.2917 176.281 49.4167 176.281 49.5L176.156 49.9062L176.031 51.0625L176.344 52.0625Z" fill="#D59872"/>
</svg>
